<svg xmlns="http://www.w3.org/2000/svg" width="168" height="100" fill="none" viewBox="0 0 168 100">
  <g clip-path="url(#clip0_2_41)">
    <g filter="url(#filter0_d_2_41)">
      <path fill="#FFCC75" d="M69.954 21.908h2.906c-.04.84-.266 1.582-.681 2.224-.415.642-.99 1.143-1.727 1.503-.73.354-1.593.531-2.59.531-.807 0-1.53-.136-2.166-.407a4.415 4.415 0 01-1.61-1.17c-.437-.51-.772-1.126-1.005-1.851-.227-.725-.34-1.541-.34-2.449v-.656c0-.907.119-1.723.357-2.448.244-.73.587-1.35 1.03-1.86a4.464 4.464 0 011.61-1.178c.625-.272 1.32-.407 2.083-.407 1.052 0 1.94.188 2.665.564a4.16 4.16 0 011.685 1.552c.398.653.633 1.398.705 2.233h-2.905c-.011-.453-.089-.832-.232-1.137a1.437 1.437 0 00-.681-.697c-.31-.155-.722-.232-1.237-.232-.36 0-.672.066-.938.199a1.644 1.644 0 00-.664.63c-.177.288-.31.662-.398 1.121a9.294 9.294 0 00-.125 1.644v.672c0 .642.039 1.19.116 1.644.078.453.202.824.374 1.112.171.288.393.5.664.64.277.132.614.198 1.013.198.442 0 .816-.069 1.12-.207.305-.144.54-.36.706-.648.166-.293.254-.666.265-1.12zm8.81-5.454L75.817 26h-3.129l4.44-12.086h1.985l-.349 2.54zM81.204 26l-2.954-9.546-.382-2.54h2.008L84.342 26h-3.137zm-.116-4.507v2.25h-6.2v-2.25h6.2zm11.533 2.266V26h-6.11v-2.241h6.11zm-5.072-9.845V26h-2.914V13.914h2.914zm12.047 7.994h2.905c-.038.84-.265 1.582-.68 2.224-.415.642-.991 1.143-1.727 1.503-.73.354-1.593.531-2.59.531-.808 0-1.53-.136-2.166-.407a4.415 4.415 0 01-1.61-1.17c-.438-.51-.772-1.126-1.005-1.851-.227-.725-.34-1.541-.34-2.449v-.656c0-.907.119-1.723.357-2.448.243-.73.586-1.35 1.029-1.86a4.464 4.464 0 011.61-1.178c.626-.272 1.32-.407 2.084-.407 1.051 0 1.94.188 2.664.564.725.377 1.287.894 1.685 1.552.399.653.634 1.398.706 2.233h-2.905c-.011-.453-.089-.832-.233-1.137a1.436 1.436 0 00-.68-.697c-.31-.155-.722-.232-1.237-.232-.36 0-.672.066-.938.199a1.645 1.645 0 00-.664.63c-.177.288-.31.662-.399 1.121a9.294 9.294 0 00-.124 1.644v.672c0 .642.039 1.19.116 1.644.078.453.202.824.374 1.112.171.288.392.5.664.64.276.132.614.198 1.012.198.443 0 .817-.069 1.121-.207.304-.144.54-.36.706-.648.166-.293.254-.666.265-1.12zm10.246-7.994h2.914v7.894c0 .94-.197 1.738-.59 2.39a3.74 3.74 0 01-1.652 1.47c-.708.332-1.541.498-2.498.498-.946 0-1.779-.166-2.499-.498a3.828 3.828 0 01-1.676-1.47c-.399-.652-.598-1.45-.598-2.39v-7.894h2.922v7.894c0 .498.072.905.216 1.22.143.31.354.537.63.681.277.144.612.216 1.005.216.398 0 .733-.072 1.004-.216.271-.144.476-.37.614-.68.139-.316.208-.723.208-1.22v-7.895zm12.138 9.845V26h-6.109v-2.241h6.109zm-5.071-9.845V26h-2.914V13.914h2.914zm10.992 2.54L124.955 26h-3.13l4.441-12.086h1.984l-.349 2.54zM130.342 26l-2.955-9.546-.382-2.54h2.009L133.48 26h-3.138zm-.116-4.507v2.25h-6.201v-2.25h6.201zm8.403-7.579V26h-2.914V13.914h2.914zm3.636 0v2.25h-10.103v-2.25h10.103zm10.635 5.802v.49c0 .924-.13 1.754-.39 2.49a5.412 5.412 0 01-1.087 1.876c-.47.515-1.027.91-1.669 1.187a5.404 5.404 0 01-2.125.407c-.78 0-1.494-.136-2.141-.407a4.905 4.905 0 01-1.677-1.187 5.525 5.525 0 01-1.096-1.876c-.254-.736-.381-1.566-.381-2.49v-.49c0-.924.127-1.754.381-2.49.26-.736.623-1.361 1.088-1.876a4.672 4.672 0 011.668-1.187 5.4 5.4 0 012.142-.415c.775 0 1.483.138 2.125.415a4.67 4.67 0 011.677 1.187c.47.515.835 1.14 1.095 1.876s.39 1.566.39 2.49zm-2.955.49V19.7c0-.598-.052-1.124-.157-1.577-.1-.46-.249-.844-.449-1.154a1.97 1.97 0 00-.738-.698 1.994 1.994 0 00-.988-.24c-.388 0-.725.08-1.013.24a1.931 1.931 0 00-.722.698c-.194.31-.34.694-.44 1.154a7.84 7.84 0 00-.141 1.577v.506c0 .592.047 1.118.141 1.577.1.454.246.839.44 1.154.199.315.443.553.73.714.294.16.634.24 1.021.24.371 0 .7-.08.988-.24.288-.16.529-.399.722-.714.2-.315.349-.7.449-1.154.105-.46.157-.985.157-1.577zm3.871-6.292h4.757c.929 0 1.737.138 2.423.415.687.277 1.215.686 1.586 1.229.376.542.564 1.212.564 2.008 0 .692-.108 1.27-.323 1.735-.216.465-.518.85-.905 1.154a5.091 5.091 0 01-1.337.739l-.954.54h-3.993l-.017-2.25h2.956c.37 0 .677-.067.921-.2a1.29 1.29 0 00.548-.564c.127-.249.191-.545.191-.888 0-.349-.064-.647-.191-.896a1.312 1.312 0 00-.565-.573c-.243-.133-.545-.2-.904-.2h-1.843V26h-2.914V13.914zM160.432 26l-2.673-5.346 3.088-.016 2.706 5.237V26h-3.121z"/>
    </g>
    <path fill="#FFCC75" d="M36.666 19.578a1.35 1.35 0 01-.931.367c-.337 0-.675-.122-.932-.367a1.211 1.211 0 010-1.773l3.793-3.61h-6.813l-13.176 12.54h6.814l5.656-5.384a1.366 1.366 0 011.863 0c.515.49.515 1.284 0 1.774l-3.793 3.61h22.511v-12.54h-9.336l-5.656 5.383zM11.474 14.195v12.54h3.406l13.176-12.54H11.474z"/>
    <path fill="#FFCC75" d="M11.474 14.195v12.54h3.406l13.176-12.54H11.474z"/>
    <path fill="#FFCC75" d="M14.244 13.541v13.666h7.744L51.937 13.54H14.244z"/>
    <path fill="#FFCC75" d="M51.937 27.207V13.54h-7.744L14.244 27.207h37.693z"/>
    <path fill="#F2484B" d="M51.658 42.617h-8.256v2.508h8.256v-2.508z"/>
    <path fill="#185F8D" d="M51.658 62.261v-9.613h-8.256v21.734h8.256v-7.105c0-.693.59-1.254 1.318-1.254v-2.508c-.728 0-1.318-.561-1.318-1.254zM35.496 52.648h-8.124v7.105h8.124v-7.105zM19.467 52.648h-8.125v7.105h8.125v-7.105zM35.496 67.277h-8.124v7.105h8.124v-7.105zM19.467 67.277h-8.125v7.105h8.125v-7.105z"/>
    <path fill="#6DA8D6" d="M54.732 7.508H8.268c-2.18 0-3.953 1.687-3.953 3.762v66.038c0 2.074 1.773 3.762 3.953 3.762h46.464c2.18 0 3.953-1.688 3.953-3.762V11.27c0-2.075-1.773-3.762-3.953-3.762zm-32.63 68.128c0 .693-.59 1.254-1.318 1.254h-10.76c-.727 0-1.317-.561-1.317-1.254v-9.613c0-.693.59-1.254 1.317-1.254h10.76c.728 0 1.318.561 1.318 1.254v9.613zm0-14.629c0 .693-.59 1.254-1.318 1.254h-10.76c-.727 0-1.317-.561-1.317-1.254v-9.613c0-.692.59-1.254 1.317-1.254h10.76c.728 0 1.318.562 1.318 1.254v9.613zM20.784 35.93H10.156c-.728 0-1.317-.56-1.317-1.254 0-.692.59-1.253 1.317-1.253h10.628c.728 0 1.318.56 1.318 1.254 0 .692-.59 1.253-1.318 1.253zm17.348 39.707c0 .693-.59 1.254-1.318 1.254h-10.76c-.727 0-1.317-.561-1.317-1.254v-9.613c0-.693.59-1.254 1.317-1.254h10.76c.728 0 1.318.561 1.318 1.254v9.613zm0-14.629c0 .693-.59 1.254-1.318 1.254h-10.76c-.727 0-1.317-.561-1.317-1.254v-9.613c0-.692.59-1.254 1.317-1.254h10.76c.728 0 1.318.562 1.318 1.254v9.613zm16.161 1.254c0 .693-.59 1.254-1.317 1.254v2.508c.727 0 1.317.561 1.317 1.254v8.36c0 .692-.59 1.253-1.317 1.253H42.084c-.728 0-1.317-.561-1.317-1.254V51.394c0-.692.59-1.254 1.317-1.254h10.892c.727 0 1.317.562 1.317 1.254v10.867zm0-15.882c0 .692-.59 1.254-1.317 1.254H42.084c-.728 0-1.317-.562-1.317-1.254v-5.016c0-.693.59-1.254 1.317-1.254h10.892c.727 0 1.317.561 1.317 1.254v5.016zm-1.317-10.45H26.054c-.727 0-1.317-.56-1.317-1.254 0-.692.59-1.253 1.317-1.253h26.922c.727 0 1.317.56 1.317 1.254 0 .692-.59 1.253-1.317 1.253zm1.317-7.94c0 .692-.59 1.253-1.317 1.253h-42.82c-.728 0-1.317-.561-1.317-1.254V12.941c0-.692.59-1.254 1.317-1.254h42.82c.727 0 1.317.562 1.317 1.254v15.047z"/>
    <path fill="#082947" d="M52.976 40.11H42.084c-.728 0-1.317.56-1.317 1.253v5.016c0 .692.59 1.254 1.317 1.254h10.892c.727 0 1.317-.562 1.317-1.254v-5.016c0-.693-.59-1.254-1.317-1.254zm-1.318 5.015h-8.256v-2.508h8.256v2.508zM20.784 64.769h-10.76c-.727 0-1.317.561-1.317 1.254v9.613c0 .693.59 1.254 1.317 1.254h10.76c.728 0 1.318-.561 1.318-1.254v-9.613c0-.693-.59-1.254-1.318-1.254zm-1.317 9.613h-8.125v-7.105h8.125v7.105zM36.814 64.769h-10.76c-.727 0-1.317.561-1.317 1.254v9.613c0 .693.59 1.254 1.317 1.254h10.76c.728 0 1.318-.561 1.318-1.254v-9.613c0-.693-.59-1.254-1.318-1.254zm-1.318 9.613h-8.124v-7.105h8.124v7.105zM20.784 50.14h-10.76c-.727 0-1.317.562-1.317 1.254v9.613c0 .693.59 1.254 1.317 1.254h10.76c.728 0 1.318-.561 1.318-1.254v-9.613c0-.692-.59-1.254-1.318-1.254zm-1.317 9.613h-8.125v-7.105h8.125v7.105zM36.814 50.14h-10.76c-.727 0-1.317.562-1.317 1.254v9.613c0 .693.59 1.254 1.317 1.254h10.76c.728 0 1.318-.561 1.318-1.254v-9.613c0-.692-.59-1.254-1.318-1.254zm-1.318 9.613h-8.124v-7.105h8.124v7.105zM52.976 50.14H42.084c-.728 0-1.317.562-1.317 1.254v24.242c0 .693.59 1.254 1.317 1.254h10.892c.727 0 1.317-.561 1.317-1.254v-8.36c0-.692-.59-1.253-1.317-1.253-.728 0-1.318.561-1.318 1.254v7.105h-8.256V52.648h8.256v9.613c0 .693.59 1.254 1.318 1.254.727 0 1.317-.561 1.317-1.254V51.394c0-.692-.59-1.254-1.317-1.254z"/>
    <path fill="#082947" d="M54.732 5H8.268C4.635 5 1.68 7.812 1.68 11.27v66.038c0 3.457 2.955 6.27 6.588 6.27h46.464c3.633 0 6.588-2.813 6.588-6.27V11.27c0-3.458-2.955-6.27-6.588-6.27zm3.953 72.308c0 2.074-1.773 3.762-3.953 3.762H8.268c-2.18 0-3.953-1.688-3.953-3.762V11.27c0-2.075 1.773-3.762 3.953-3.762h46.464c2.18 0 3.953 1.687 3.953 3.762v66.038z"/>
    <path fill="#082947" d="M52.976 11.687h-42.82c-.728 0-1.317.562-1.317 1.254v15.047c0 .693.59 1.254 1.317 1.254h42.82c.727 0 1.317-.561 1.317-1.254V12.941c0-.692-.59-1.254-1.317-1.254zm-1.318 15.047H11.474V14.195h40.184v12.54zM52.976 33.422H26.054c-.727 0-1.317.56-1.317 1.254 0 .692.59 1.253 1.317 1.253h26.922c.727 0 1.317-.56 1.317-1.254 0-.692-.59-1.253-1.317-1.253z"/>
    <path fill="#F2484B" d="M158.311 33.3H69.048c-2.412 0-4.368.561-4.368 1.254 0 .692 1.956 1.254 4.368 1.254h89.263c2.414 0 4.369-.562 4.369-1.254 0-.693-1.955-1.254-4.369-1.254z"/>
    <path fill="#082947" d="M20.784 33.422H10.156c-.728 0-1.317.56-1.317 1.254 0 .692.59 1.253 1.317 1.253h10.628c.728 0 1.318-.56 1.318-1.254 0-.692-.59-1.253-1.318-1.253z"/>
    <path fill="#F2484B" d="M18.982 21.466h-2.747l-.015-1.684h2.227c.4 0 .72-.044.96-.132.239-.093.412-.227.52-.403.112-.176.168-.395.168-.66 0-.302-.056-.546-.168-.732-.113-.185-.291-.32-.535-.402-.24-.088-.55-.132-.93-.132h-1.26V26h-2.57V15.336h3.83c.659 0 1.247.061 1.765.183.517.117.957.298 1.318.542.366.244.645.552.835.923.19.366.286.798.286 1.296 0 .435-.093.843-.279 1.223-.185.381-.495.691-.93.93-.43.235-1.018.357-1.765.367l-.71.666zM18.879 26h-3.267l.88-1.977h2.387c.352 0 .632-.054.842-.162.215-.112.37-.259.462-.44a1.3 1.3 0 00.146-.614c0-.274-.046-.51-.139-.71a.95.95 0 00-.425-.462c-.195-.113-.456-.169-.783-.169H16.82l.015-1.684h2.585l.6.674c.714-.03 1.278.07 1.693.3.42.23.72.532.9.908.181.376.271.77.271 1.18 0 .697-.15 1.281-.454 1.75-.297.468-.744.82-1.34 1.054-.596.235-1.333.352-2.212.352zm9.26-10.664h2.094l2.38 7.42 2.38-7.42h2.095L33.463 26h-1.7l-3.625-10.664zm-1.275 0h2.168l.402 8.174V26h-2.57V15.336zm9.33 0h2.176V26h-2.578v-2.49l.403-8.174zm9.106 0V26h-2.564V15.336H45.3z"/>
    <g>
      <path fill="#F2484B" d="M83 58.043h62v6.42H83v-6.42z"/>
      <path fill="#082947" d="M120.865 58.043h2.168v6.42h-2.168v-6.42zM104.967 58.043h2.168v6.42h-2.168v-6.42zM134.957 51.89h1.771c2.948 0 5.338 1.85 5.338 4.132v10.462c0 2.282-2.39 4.132-5.338 4.132h-1.771V51.89z"/>
      <path fill="#185F8D" d="M126.054 71.505c0 2.282 2.389 4.132 5.337 4.132s5.337-1.85 5.337-4.132V51.001c0-2.282-2.389-4.132-5.337-4.132s-5.337 1.85-5.337 4.132v20.504z"/>
      <path fill="#082947" d="M93.043 51.89h-1.771c-2.948 0-5.338 1.85-5.338 4.132v10.462c0 2.282 2.39 4.132 5.338 4.132h1.771V51.89z"/>
      <path fill="#185F8D" d="M101.946 71.505c0 2.282-2.39 4.132-5.337 4.132-2.948 0-5.337-1.85-5.337-4.132V51.001c0-2.282 2.39-4.132 5.337-4.132 2.948 0 5.337 1.85 5.337 4.132v20.504z"/>
    </g>
  </g>
  <defs>
    <clipPath id="clip0_2_41">
      <path fill="#fff" d="M0 0h168v100H0z"/>
    </clipPath>
    <filter id="filter0_d_2_41" width="100.812" height="13.426" x="62.741" y="13.74" color-interpolation-filters="sRGB" filterUnits="userSpaceOnUse">
      <feFlood flood-opacity="0" result="BackgroundImageFix"/>
      <feColorMatrix in="SourceAlpha" result="hardAlpha" values="0 0 0 0 0 0 0 0 0 0 0 0 0 0 0 0 0 0 127 0"/>
      <feOffset dy="1"/>
      <feComposite in2="hardAlpha" operator="out"/>
      <feColorMatrix values="0 0 0 0 0 0 0 0 0 0 0 0 0 0 0 0 0 0 0.25 0"/>
      <feBlend in2="BackgroundImageFix" result="effect1_dropShadow_2_41"/>
      <feBlend in="SourceGraphic" in2="effect1_dropShadow_2_41" result="shape"/>
    </filter>
  </defs>
</svg>
